<svg xmlns="http://www.w3.org/2000/svg" width="512" height="512" viewBox="0 0 120 120" fill="none"><metadata><rdf:RDF xmlns:rdf="http://www.w3.org/1999/02/22-rdf-syntax-ns#" xmlns:dc="http://purl.org/dc/elements/1.1/"><rdf:Description><dc:creator>RealFaviconGenerator</dc:creator><dc:source>https://realfavicongenerator.net</dc:source></rdf:Description></rdf:RDF></metadata><defs>
    <filter id="halo" x="-40%" y="-40%" width="180%" height="180%">
      <feGaussianBlur stdDeviation="2.5"></feGaussianBlur>
    </filter>
  </defs><g filter="url(#halo)" stroke="#22d3ee" stroke-width="8" stroke-linecap="round" opacity="0.4">
    <path d="M14.75 44 A48 48 0 0 1 105.25 44"></path>
    <path d="M105.25 76 A48 48 0 0 1 14.75 76"></path>
  </g><g stroke="#67e8f9" stroke-width="6.5" stroke-linecap="round">
    <path d="M14.75 44 A48 48 0 0 1 105.25 44"></path>
    <path d="M105.25 76 A48 48 0 0 1 14.75 76"></path>
  </g><path d="M8 57 C22 42 38 42 54 56 C70 70 86 70 106 55" stroke="#7deaf5" stroke-width="5.5" stroke-linecap="round"></path><path d="M8 70 C22 55 38 55 54 69 C70 83 86 83 106 68" stroke="#5bd4e8" stroke-width="5.5" stroke-linecap="round"></path></svg>